<?xml version="1.0" encoding="UTF-8"?>
<svg version="1.1" xmlns="http://www.w3.org/2000/svg" width="502" height="460">
<path d="M0 0 C7.35896363 3.84675369 14.33998379 8.32625903 21.33251953 12.79248047 C24.90255143 15.05242411 28.51462909 17.24279749 32.125 19.4375 C37.82152576 22.90664099 43.50215608 26.39979852 49.16748047 29.91967773 C57.25503456 34.94285952 65.35840595 39.93981993 73.5 44.875 C74.75852783 45.64541626 74.75852783 45.64541626 76.04248047 46.43139648 C76.82381348 46.90262939 77.60514648 47.3738623 78.41015625 47.859375 C79.43508179 48.48150879 79.43508179 48.48150879 80.48071289 49.11621094 C83.85229028 50.85437161 86.98236025 51.24990608 90.74372864 51.25630188 C92.02416801 51.26231415 92.02416801 51.26231415 93.33047485 51.26844788 C94.25887177 51.26791916 95.18726868 51.26739044 96.14379883 51.2668457 C97.12800308 51.27032013 98.11220734 51.27379456 99.12623596 51.27737427 C101.26296741 51.28472374 103.39970646 51.29007343 105.53644753 51.29366493 C108.92025048 51.30083575 112.30390889 51.31650693 115.68766785 51.33500671 C125.30844142 51.38744851 134.92913537 51.4354551 144.55004883 51.45092773 C150.43571829 51.4610138 156.32102328 51.49035352 162.20654869 51.53224754 C164.44755992 51.54455223 166.68862262 51.54967978 168.92966652 51.54744911 C172.0678454 51.54509398 175.20497993 51.56727946 178.34301758 51.5949707 C179.2653418 51.58836929 180.18766602 51.58176788 181.13793945 51.57496643 C187.08056972 51.66090991 190.55561015 52.6856704 195.4375 56.125 C199.75533945 60.79293454 201.68478843 64.380977 201.69287109 70.74804688 C201.69983002 71.87601685 201.70678894 73.00398682 201.71395874 74.1661377 C201.71296173 75.37974976 201.71196472 76.59336182 201.7109375 77.84375 C201.73122084 80.41016066 201.75207151 82.97656688 201.7734375 85.54296875 C201.79820618 89.59195759 201.8133667 93.64088116 201.81835938 97.68994141 C201.82433549 101.59561352 201.86159252 105.50074547 201.8984375 109.40625 C201.89086929 111.22666809 201.89086929 111.22666809 201.88314819 113.0838623 C201.89641144 114.21183228 201.90967468 115.33980225 201.92333984 116.50195312 C201.92618988 117.49360474 201.92903992 118.48525635 201.93197632 119.50695801 C202.57912341 122.85844941 203.83535052 123.98399796 206.4375 126.125 C208.41613158 127.42885369 210.417936 128.69799259 212.4375 129.9375 C218.32023493 133.8211082 221.09976333 136.33069541 223.01953125 143.2109375 C225.12102682 154.40582046 217.27725177 164.23741414 211.4375 173.125 C210.65681152 174.17864746 209.87612305 175.23229492 209.07177734 176.31787109 C201.37985556 187.06248548 201.34051462 196.69119648 201.75 209.5625 C201.82234505 212.37573037 201.88056167 215.18665337 201.90263367 218.00074768 C201.91759075 219.73430031 201.96104077 221.46794571 202.03889465 223.19981384 C202.10731261 228.91367581 200.67905764 232.04187901 197.08683777 236.46888733 C193.56801855 240.00216062 189.36440742 242.25604201 184.4375 243.125 C183.22320312 243.125 182.00890625 243.125 180.7578125 243.125 C180.07589844 243.12628906 179.39398438 243.12757813 178.69140625 243.12890625 C177.27954435 243.12631568 175.86737929 243.09275878 174.45703125 243.02734375 C172.17676032 243.06599241 170.55481581 243.26140446 168.4375 244.125 C165.87540342 246.80166029 164.22318391 249.89716938 162.4375 253.125 C161.33215493 254.93425793 160.22129675 256.7401571 159.10546875 258.54296875 C157.94422718 260.4654907 156.78410137 262.38868696 155.625 264.3125 C153.23262338 268.2521065 150.83530281 272.18869431 148.4375 276.125 C147.96779785 276.89827637 147.4980957 277.67155273 147.01416016 278.46826172 C145.83332727 280.40287542 144.63876502 282.32802916 143.4375 284.25 C142.798125 285.28382813 142.15875 286.31765625 141.5 287.3828125 C137.61919724 292.54251617 133.03158901 296.33717069 126.546875 297.44921875 C113.34734601 298.51752595 99.68740283 286.43880446 89.07861328 279.77685547 C85.1535286 277.32195411 81.20363845 274.90855341 77.25 272.5 C76.51958496 272.05438721 75.78916992 271.60877441 75.03662109 271.1496582 C73.57093523 270.2554762 72.10511562 269.36151338 70.63916016 268.46777344 C67.6549929 266.6477557 64.67253498 264.82494765 61.69018555 263.00195312 C60.20087686 262.0916138 58.71145816 261.18145444 57.22192383 260.27148438 C53.27138528 257.85801395 49.32229402 255.44221132 45.375 253.0234375 C44.13556641 252.26450195 44.13556641 252.26450195 42.87109375 251.49023438 C41.27954381 250.51563357 39.68838171 249.54039905 38.09765625 248.56445312 C37.38480469 248.12810547 36.67195312 247.69175781 35.9375 247.2421875 C35.3084375 246.85659668 34.679375 246.47100586 34.03125 246.07373047 C31.21152847 244.39520139 29.48833149 243.99233733 26.21992493 243.95573425 C25.33539139 243.94331192 24.45085785 243.93088959 23.53952026 243.91809082 C22.56652985 243.9092688 21.59353943 243.90044678 20.59106445 243.89135742 C19.05667473 243.87151543 19.05667473 243.87151543 17.49128723 243.85127258 C15.26395801 243.82266419 13.03660264 243.79604044 10.8092289 243.77113914 C7.28270689 243.73025923 3.7564001 243.68103133 0.23002625 243.62898254 C-9.79856643 243.48113285 -19.82712923 243.33776504 -29.85620117 243.22631836 C-35.98609988 243.15759027 -42.11547863 243.0699338 -48.24494362 242.96993446 C-50.58078549 242.93541884 -52.91674296 242.90796968 -55.2527523 242.88774681 C-58.52540367 242.8586582 -61.79685487 242.80545547 -65.0690918 242.74682617 C-66.03196106 242.74407684 -66.99483032 242.74132751 -67.98687744 242.73849487 C-74.03096117 242.59804663 -77.56542019 241.5586531 -82.5625 238.125 C-83.53316406 237.51205078 -83.53316406 237.51205078 -84.5234375 236.88671875 C-87.2049439 234.84966278 -88.46691447 233.53209934 -89.24023438 230.23852539 C-89.84365498 224.71957668 -89.50479925 219.15793871 -89.34375 213.62109375 C-89.29703099 211.16475889 -89.25283638 208.70837494 -89.2109375 206.25195312 C-89.14301188 202.39717415 -89.06194187 198.54508042 -88.93847656 194.69165039 C-88.82333604 190.95933708 -88.76592122 187.22980564 -88.71875 183.49609375 C-88.66916138 182.34596298 -88.61957275 181.19583221 -88.56848145 180.010849 C-88.4402315 174.00267301 -88.4402315 174.00267301 -91.49194336 169.11209106 C-93.78905921 167.56593959 -96.07277674 166.32986588 -98.5625 165.125 C-103.56029289 162.00071402 -108.29429519 158.75571897 -110.5625 153.125 C-111.6379926 146.81870248 -111.72049812 141.05687666 -108.0625 135.625 C-107.51464844 134.92117187 -106.96679688 134.21734375 -106.40234375 133.4921875 C-104.23364417 130.70188613 -102.45082391 127.7752443 -100.625 124.75 C-100.01785156 123.75226563 -99.41070312 122.75453125 -98.78515625 121.7265625 C-98.29293579 120.88460327 -98.29293579 120.88460327 -97.79077148 120.02563477 C-96.5625 118.125 -96.5625 118.125 -94.77368164 115.98803711 C-87.74254626 106.90105597 -88.68551316 97.39022433 -88.875 86.4375 C-88.90666742 83.66889703 -88.92776285 80.90140504 -88.92558289 78.13261414 C-88.92571123 76.42172061 -88.94541578 74.71066883 -88.98860168 73.00032043 C-89.01191605 66.63704946 -87.48091805 61.45182331 -83.22090149 56.59565735 C-78.06013639 51.87432045 -72.8030642 51.02152167 -66.0625 51.1875 C-65.1859375 51.24035156 -64.309375 51.29320312 -63.40625 51.34765625 C-59.60233118 51.04982195 -56.63269208 50.38821157 -53.5625 48.125 C-51.06150406 44.94483799 -49.17793754 41.48638056 -47.25 37.9375 C-46.11878198 35.9405022 -44.98595542 33.94441476 -43.8515625 31.94921875 C-43.29758789 30.96228027 -42.74361328 29.9753418 -42.17285156 28.95849609 C-20.14682399 -9.7974281 -20.14682399 -9.7974281 0 0 Z M-18.5625 9.125 C-20.80519731 12.14243318 -22.71257557 15.32847909 -24.625 18.5625 C-25.1821167 19.48377686 -25.7392334 20.40505371 -26.31323242 21.35424805 C-28.07393945 24.27140313 -29.81840256 27.19789073 -31.5625 30.125 C-32.73330216 32.07095839 -33.90515869 34.01628283 -35.078125 35.9609375 C-37.91847467 40.67503435 -40.74559055 45.39686319 -43.5625 50.125 C-42.9025 50.455 -42.2425 50.785 -41.5625 51.125 C-41.5625 50.465 -41.5625 49.805 -41.5625 49.125 C-40.59805214 49.85549057 -40.59805214 49.85549057 -39.61412048 50.60073853 C-35.54183415 52.63481491 -32.22572817 52.54628716 -27.73657227 52.51318359 C-26.85790497 52.51844055 -25.97923767 52.52369751 -25.07394409 52.52911377 C-22.17541619 52.54229486 -19.27743955 52.53358157 -16.37890625 52.5234375 C-14.36018265 52.52545896 -12.34145975 52.528371 -10.32273865 52.53213501 C-6.09358766 52.53655596 -1.8646269 52.53013528 2.36450195 52.51611328 C7.77948646 52.49903259 13.1940245 52.50885707 18.60899258 52.52683067 C22.77748462 52.53768399 26.94587127 52.53421485 31.11436653 52.5264473 C33.11061722 52.52444901 35.10687755 52.5268915 37.10311699 52.53388596 C39.89639409 52.5415246 42.6889539 52.52986185 45.48217773 52.51318359 C46.71441322 52.52229263 46.71441322 52.52229263 47.97154236 52.53158569 C52.87316179 52.47750383 56.13375041 51.7276427 60.4375 49.125 C57.11282802 46.37931443 53.74825172 43.97444344 50.0703125 41.7265625 C49.03092529 41.08912109 47.99153809 40.45167969 46.9206543 39.79492188 C45.81246338 39.12009766 44.70427246 38.44527344 43.5625 37.75 C42.40193042 37.03999003 41.24153237 36.32969959 40.08129883 35.61914062 C36.53625586 33.44967516 32.98717791 31.28687061 29.4375 29.125 C27.82512451 28.14225098 27.82512451 28.14225098 26.18017578 27.13964844 C20.21694122 23.50524603 20.21694122 23.50524603 14.24658203 19.88256836 C10.25781427 17.46642422 6.27993562 15.04346784 2.36328125 12.51171875 C1.77135986 12.13273437 1.17943848 11.75375 0.56958008 11.36328125 C-0.90784037 10.41207443 -2.37634748 9.44705833 -3.84375 8.48046875 C-9.29506582 5.76264319 -13.82894579 4.95189861 -18.5625 9.125 Z M-78.5625 66.125 C-79.75662346 69.70737037 -79.69207863 72.60241457 -79.6953125 76.3828125 C-79.69626923 77.08646942 -79.69722595 77.79012634 -79.69821167 78.5151062 C-79.69889125 79.99949229 -79.69705245 81.48388137 -79.69287109 82.96826172 C-79.68750367 85.24843958 -79.69283171 87.52842189 -79.69921875 89.80859375 C-79.69855824 91.25000044 -79.69727765 92.691407 -79.6953125 94.1328125 C-79.69418457 95.44910645 -79.69305664 96.76540039 -79.69189453 98.12158203 C-79.90663932 101.00619928 -79.90663932 101.00619928 -78.5625 102.125 C-76.03200598 102.19813567 -73.52945163 102.21747527 -71 102.1875 C-70.28908203 102.18298828 -69.57816406 102.17847656 -68.84570312 102.17382812 C-67.08459987 102.16200864 -65.32353964 102.14407263 -63.5625 102.125 C-61.9197874 98.36756546 -61.9197874 98.36756546 -61.75 94.3125 C-61.44514949 89.13004135 -58.45658014 85.61058689 -55.38671875 81.58203125 C-52.50557192 79.28081547 -49.12018219 78.23081758 -45.6875 77 C-44.97980469 76.73574219 -44.27210938 76.47148437 -43.54296875 76.19921875 C-29.99381513 71.22867264 -17.76516461 72.69277664 -4.5625 78.125 C-2.50327598 76.06577598 -3.14822421 71.90791876 -3 69.0625 C-2.93522461 67.92458008 -2.93522461 67.92458008 -2.86914062 66.76367188 C-2.76276367 64.88434562 -2.66210066 63.00469756 -2.5625 61.125 C-11.58563366 61.00899775 -20.60850949 60.9202304 -29.63222694 60.86593914 C-33.82263203 60.83987792 -38.01252586 60.80454467 -42.20263672 60.74780273 C-46.24864072 60.69335701 -50.29415391 60.66355332 -54.34049606 60.65061378 C-55.88187763 60.64139625 -57.42323323 60.62339596 -58.96440506 60.59634972 C-61.12870947 60.55988883 -63.29100283 60.55506123 -65.45556641 60.55737305 C-66.68578522 60.54626999 -67.91600403 60.53516693 -69.1835022 60.52372742 C-73.72382127 61.33165022 -75.34055227 62.86157481 -78.5625 66.125 Z M6.4375 61.125 C6.30229551 65.64683901 6.20325057 70.16461727 6.125 74.6875 C6.08310547 75.96431641 6.04121094 77.24113281 5.99804688 78.55664062 C5.7695026 86.39474191 5.7695026 86.39474191 8.625 93.5 C11.15275177 96.28035035 11.15275177 96.28035035 14.11328125 96.80859375 C14.98339844 96.72738281 15.85351562 96.64617187 16.75 96.5625 C18.07451172 96.46775391 18.07451172 96.46775391 19.42578125 96.37109375 C20.08964844 96.28988281 20.75351563 96.20867187 21.4375 96.125 C26.55498779 89.42592642 25.90177772 82.85065714 25.6875 74.6875 C25.66945312 73.38361328 25.65140625 72.07972656 25.6328125 70.73632812 C25.58586607 67.53223457 25.51412908 64.3285211 25.4375 61.125 C19.1675 61.125 12.8975 61.125 6.4375 61.125 Z M35.4375 61.125 C35.4375 67.065 35.4375 73.005 35.4375 79.125 C37.479375 78.320625 39.52125 77.51625 41.625 76.6875 C55.66131619 71.15804211 67.59759593 72.672085 81.3125 78.5 C86.6524383 81.05189634 90.2754522 83.52422635 92.75 89.0625 C93.45610602 92.20788134 93.58028281 94.9123867 93.4375 98.125 C93.4375 99.115 93.4375 100.105 93.4375 101.125 C126.1075 101.125 158.7775 101.125 192.4375 101.125 C195.9585142 71.04850876 195.9585142 71.04850876 187.4375 62.125 C184.70805516 60.76027758 182.55900984 61.00219407 179.50241089 61.00474548 C177.60510223 61.00268349 177.60510223 61.00268349 175.66946411 61.00057983 C174.2599485 61.00411922 172.85043312 61.00775403 171.44091797 61.01147461 C169.96280926 61.01175656 168.48470042 61.0115986 167.0065918 61.0110321 C162.9861651 61.01074442 158.96576805 61.01663649 154.94534826 61.02360606 C150.74661756 61.0298444 146.54788623 61.03044378 142.34915161 61.03163147 C134.39478538 61.03474336 126.44043285 61.04295485 118.48607266 61.05298096 C109.43178688 61.06414649 100.37750047 61.06965366 91.32320952 61.07467639 C72.6946317 61.08513757 54.06606745 61.102935 35.4375 61.125 Z M-51.5625 90.125 C-53.4733359 95.54956307 -51.72215736 99.25429832 -49.4375 104.1875 C-49.14101562 104.88166016 -48.84453125 105.57582031 -48.5390625 106.29101562 C-46.53117686 110.77047235 -44.27625029 113.81192809 -40.5625 117.125 C-39.675625 117.970625 -38.78875 118.81625 -37.875 119.6875 C-30.08947312 125.93172968 -21.30616487 127.1883949 -11.5625 126.125 C-9.5442517 125.51580524 -7.53694068 124.86393738 -5.5625 124.125 C-6.0575 119.67 -6.0575 119.67 -6.5625 115.125 C-7.63733643 114.68631592 -7.63733643 114.68631592 -8.73388672 114.23876953 C-11.97057273 112.91436027 -15.20404826 111.58228488 -18.4375 110.25 C-19.56542969 109.78980469 -20.69335938 109.32960938 -21.85546875 108.85546875 C-22.93183594 108.41074219 -24.00820312 107.96601563 -25.1171875 107.5078125 C-26.11218262 107.09934082 -27.10717773 106.69086914 -28.13232422 106.27001953 C-30.5625 105.125 -30.5625 105.125 -32.5625 103.125 C-32.1875 100.5 -32.1875 100.5 -31.5625 98.125 C-27.16333835 97.92065185 -24.01921133 98.44588081 -19.9453125 100.09375 C-18.92695313 100.49980469 -17.90859375 100.90585938 -16.859375 101.32421875 C-15.81265625 101.75347656 -14.7659375 102.18273437 -13.6875 102.625 C-12.61757812 103.05425781 -11.54765625 103.48351562 -10.4453125 103.92578125 C-7.81386231 104.98306034 -5.18661674 106.04967776 -2.5625 107.125 C-0.9125 105.145 0.7375 103.165 2.4375 101.125 C0.44129863 94.02739513 -4.99418619 88.74897816 -11.25 85.1875 C-22.74515857 79.16428192 -42.13192836 80.45091595 -51.5625 90.125 Z M32.4375 94.125 C30.1218552 97.36389754 30.1218552 97.36389754 29.4375 101.125 C32.57990166 104.58360029 32.57990166 104.58360029 36.4375 107.125 C38.60370926 106.41305693 38.60370926 106.41305693 41.015625 105.25390625 C41.92957031 104.84462891 42.84351563 104.43535156 43.78515625 104.01367188 C45.70565116 103.13613752 47.6249443 102.25596784 49.54296875 101.37304688 C58.23939244 97.48831904 58.23939244 97.48831904 63.4375 98.125 C64.4375 102.875 64.4375 102.875 64.4375 105.125 C63.2825 105.475625 62.1275 105.82625 60.9375 106.1875 C56.1504748 107.77550355 51.55438459 109.73088384 46.9375 111.75 C46.21884766 112.06332275 45.50019531 112.37664551 44.75976562 112.69946289 C41.35770072 114.03133716 41.35770072 114.03133716 38.4375 116.125 C38.36601801 117.47743917 38.35350546 118.83334367 38.375 120.1875 C38.395625 121.486875 38.41625 122.78625 38.4375 124.125 C45.00310363 127.15901277 52.24545212 127.15833393 59.2265625 125.4375 C70.10391262 121.39637921 76.55193859 114.80221197 81.73046875 104.5703125 C83.45784563 100.69108388 84.40814833 97.57261298 84.6875 93.3125 C82.8393107 88.59961728 79.90202731 87.20844608 75.4375 85.125 C74.77621094 84.80402344 74.11492187 84.48304688 73.43359375 84.15234375 C58.32175989 77.98717434 43.07139535 82.4472867 32.4375 94.125 Z M5.0625 110.1875 C2.67325006 114.50652874 2.42575423 118.30609238 3.4375 123.125 C5.72235553 127.10021886 8.06405429 129.66718476 12.4375 131.125 C17.00531774 131.49941129 19.5333315 131.51737501 23.75 129.6875 C27.35709107 126.2481806 28.69927916 123.02711815 29.4375 118.125 C28.90196873 113.53473196 27.92674577 111.66084061 24.8125 108.25 C17.50364676 103.64812944 11.58963627 104.51919745 5.0625 110.1875 Z M84.16796875 115.49291992 C83.21938596 117.35115988 82.30395676 119.22707541 81.4375 121.125 C79.87408033 122.97853576 78.23532417 124.49572185 76.4375 126.125 C77.0975 127.445 77.7575 128.765 78.4375 130.125 C116.0575 130.125 153.6775 130.125 192.4375 130.125 C192.4375 123.525 192.4375 116.925 192.4375 110.125 C179.14621746 109.87627547 165.85648521 109.6745638 152.56340027 109.55506611 C146.39050707 109.4977064 140.21929109 109.41993916 134.04736328 109.29516602 C128.08849678 109.17545698 122.13124092 109.10983608 116.17126465 109.08135033 C113.90009196 109.06105735 111.62900549 109.02142603 109.35852051 108.96196938 C95.10218332 107.9084628 95.10218332 107.9084628 84.16796875 115.49291992 Z M-78.5625 111.125 C-79.81683458 114.88800374 -79.66945422 118.39710909 -79.625 122.3125 C-79.62048828 123.06208984 -79.61597656 123.81167969 -79.61132812 124.58398438 C-79.59956354 126.43102383 -79.58162865 128.27802213 -79.5625 130.125 C-62.86939613 132.51401033 -62.86939613 132.51401033 -47.5625 129.125 C-47.5625 123.06083628 -49.77914962 118.18501851 -53.35546875 113.328125 C-60.40799916 108.48326854 -70.3779571 110.37010472 -78.5625 111.125 Z M-89.5625 125.125 C-91.29135357 127.59822108 -92.94007698 130.08320393 -94.5625 132.625 C-95.0265625 133.32109375 -95.490625 134.0171875 -95.96875 134.734375 C-99.08142194 139.62054607 -100.36931845 143.31085863 -100.5625 149.125 C-99.12689238 152.9251378 -97.92735329 153.9175344 -94.375 155.9375 C-93.446875 156.329375 -92.51875 156.72125 -91.5625 157.125 C-90.5725 156.465 -89.5825 155.805 -88.5625 155.125 C-88.14416222 152.01860445 -88.14416222 152.01860445 -88.26953125 148.3671875 C-88.27377609 147.70413605 -88.27802094 147.04108459 -88.28239441 146.35794067 C-88.29920029 144.23821559 -88.33685299 142.11943812 -88.375 140 C-88.39004451 138.56381581 -88.40373332 137.12761672 -88.41601562 135.69140625 C-88.4491091 132.16896236 -88.5009032 128.64707364 -88.5625 125.125 C-88.8925 125.125 -89.2225 125.125 -89.5625 125.125 Z M-44.65112305 140.26049805 C-47.34282582 142.8691327 -47.34282582 142.8691327 -48.5625 146.125 C-47.51449219 146.31835938 -46.46648437 146.51171875 -45.38671875 146.7109375 C-44.00774407 146.97359934 -42.62884151 147.23664 -41.25 147.5 C-40.55970703 147.62632812 -39.86941406 147.75265625 -39.15820312 147.8828125 C-35.72546686 148.54614318 -33.51003542 149.15997639 -30.5625 151.125 C-29.6999405 153.8540344 -28.99258056 156.46728295 -28.375 159.25 C-28.19775391 160.00410156 -28.02050781 160.75820313 -27.83789062 161.53515625 C-27.40212818 163.39597967 -26.98091214 165.26019867 -26.5625 167.125 C-26.2325 166.465 -25.9025 165.805 -25.5625 165.125 C-24.5725 165.125 -23.5825 165.125 -22.5625 165.125 C-22.5625 164.465 -22.5625 163.805 -22.5625 163.125 C-21.5725 162.795 -20.5825 162.465 -19.5625 162.125 C-17.3539234 160.24991838 -17.3539234 160.24991838 -15.5625 158.125 C-15.5625 157.465 -15.5625 156.805 -15.5625 156.125 C-14.9025 156.125 -14.2425 156.125 -13.5625 156.125 C-10.89583333 153.79166667 -10.89583333 153.79166667 -8.5625 151.125 C-8.5625 150.465 -8.5625 149.805 -8.5625 149.125 C-7.2425 148.465 -5.9225 147.805 -4.5625 147.125 C-4.5625 146.465 -4.5625 145.805 -4.5625 145.125 C-3.964375 144.856875 -3.36625 144.58875 -2.75 144.3125 C-0.56402146 143.12582594 0.85082594 142.02900887 2.4375 140.125 C2.4375 139.465 2.4375 138.805 2.4375 138.125 C3.0975 137.795 3.7575 137.465 4.4375 137.125 C1.84767608 134.0205321 1.84767608 134.0205321 -1.5625 132.125 C-4.7274076 132.50620736 -7.57381665 133.35342841 -10.625 134.26953125 C-15.79549823 135.77530135 -19.70773809 135.79547915 -24.70703125 133.98828125 C-34.61570423 130.69995648 -38.05017418 132.99747937 -44.65112305 140.26049805 Z M33.4375 132.125 C31.7875 134.105 30.1375 136.085 28.4375 138.125 C38.0075 147.695 47.5775 157.265 57.4375 167.125 C60.20937872 164.35312128 59.96365303 162.03727935 60.5 158.1875 C61.83684286 151.61077053 61.83684286 151.61077053 64.31640625 149.60546875 C66.70782755 148.82773695 68.94291969 148.43340664 71.4375 148.125 C73.12752553 147.74009223 74.8152124 147.34472354 76.5 146.9375 C77.81147661 146.66175364 79.12361248 146.38901995 80.4375 146.125 C79.7775 144.805 79.1175 143.485 78.4375 142.125 C77.7775 142.125 77.1175 142.125 76.4375 142.125 C76.4375 141.465 76.4375 140.805 76.4375 140.125 C75.7775 140.125 75.1175 140.125 74.4375 140.125 C74.4375 139.465 74.4375 138.805 74.4375 138.125 C73.7775 138.125 73.1175 138.125 72.4375 138.125 C72.4375 137.465 72.4375 136.805 72.4375 136.125 C70.2834733 133.84788606 69.37887379 132.96997647 66.4375 132.125 C63.19199573 132.63462464 60.12452144 133.50620269 56.95703125 134.375 C49.11474402 136.04616443 40.94999689 134.74563845 33.4375 132.125 Z M201.4375 135.125 C201.4375 146.345 201.4375 157.565 201.4375 169.125 C210.31171046 158.82493895 210.31171046 158.82493895 213.9375 146.1875 C212.93429428 141.72241224 210.13487018 139.66937872 206.4453125 137.21875 C204.33618155 135.99337873 204.33618155 135.99337873 201.4375 135.125 Z M90.4375 139.125 C90.1075 139.785 89.7775 140.445 89.4375 141.125 C90.076875 141.681875 90.71625 142.23875 91.375 142.8125 C93.63430987 145.34566561 94.06899047 146.80841424 94.4375 150.125 C89.83518675 153.450481 85.08444828 154.26620753 79.625 155.3125 C78.74134766 155.48974609 77.85769531 155.66699219 76.94726562 155.84960938 C74.77888494 156.28328551 72.60916113 156.70812004 70.4375 157.125 C68.3232645 165.07452546 66.66340007 172.99079246 65.4375 181.125 C61.23184149 181.52547699 59.12558278 181.62158182 55.63916016 179.10546875 C54.76050293 178.18378906 53.8818457 177.26210938 52.9765625 176.3125 C52.26250748 175.58003052 52.26250748 175.58003052 51.5340271 174.83276367 C50.02609102 173.27925102 48.54421336 171.70350386 47.0625 170.125 C45.55434039 168.55206102 44.04129054 166.98398426 42.52670288 165.41723633 C41.16266495 164.00094324 39.81076486 162.5729902 38.45947266 161.14453125 C36.79587359 159.00722008 36.79587359 159.00722008 35.4375 159.125 C35.4375 183.545 35.4375 207.965 35.4375 233.125 C61.95113469 233.27065572 61.95113469 233.27065572 88.46484375 233.36914062 C99.27599943 233.39881728 110.08696038 233.43371821 120.89794922 233.50219727 C128.77130955 233.55204498 136.64451201 233.58429402 144.51802576 233.59544247 C148.68679305 233.60195897 152.85510873 233.61726554 157.02373123 233.65365028 C160.94886788 233.6876317 164.87336762 233.69804885 168.79863739 233.69053841 C170.23777861 233.69191202 171.67694149 233.70183248 173.11595535 233.72102737 C181.7240667 234.13748459 181.7240667 234.13748459 189.27816772 230.71452332 C192.82810403 226.45735413 192.57483604 223.25761536 192.55102539 217.91162109 C192.55114593 217.04901987 192.55126646 216.18641865 192.55139065 215.29767799 C192.55064264 212.49790518 192.54301947 209.69819845 192.53515625 206.8984375 C192.53368648 205.17293327 192.53266599 203.44742859 192.53210449 201.72192383 C192.52685562 195.3146091 192.51289449 188.9073039 192.5 182.5 C192.4690625 161.029375 192.4690625 161.029375 192.4375 139.125 C158.7775 139.125 125.1175 139.125 90.4375 139.125 Z M-79.5625 140.125 C-79.63028161 151.12126256 -79.68531954 162.11738633 -79.71793652 173.11381054 C-79.73359116 178.21991425 -79.75482588 183.32586759 -79.78881836 188.43188477 C-79.8214188 193.35965261 -79.83935453 198.28727584 -79.84713173 203.2151432 C-79.85267399 205.09501738 -79.86349666 206.97488367 -79.87969017 208.85469627 C-79.90147353 211.48818429 -79.90446655 214.12107503 -79.90307617 216.75463867 C-79.913862 217.53147507 -79.92464783 218.30831146 -79.9357605 219.10868835 C-79.90331144 224.79024555 -78.75013977 227.90265893 -74.79925537 231.91621399 C-71.69521203 233.59369925 -69.29426464 233.48484543 -65.77441406 233.46557617 C-64.74777964 233.46611858 -64.74777964 233.46611858 -63.70040512 233.46667194 C-61.49267719 233.46443902 -59.28571636 233.44162347 -57.078125 233.41796875 C-55.71208054 233.41355594 -54.34603102 233.41049661 -52.97998047 233.40881348 C-47.92407611 233.39310752 -42.86828046 233.35122367 -37.8125 233.3125 C-26.51 233.250625 -15.2075 233.18875 -3.5625 233.125 C-3.5625 210.025 -3.5625 186.925 -3.5625 163.125 C-4.8825 162.795 -6.2025 162.465 -7.5625 162.125 C-9.81576898 163.76553506 -9.81576898 163.76553506 -11.93359375 166.18359375 C-12.75537109 167.04404297 -13.57714844 167.90449219 -14.42382812 168.79101562 C-16.13751748 170.63462836 -17.85105981 172.47837777 -19.56445312 174.32226562 C-20.79905273 175.61487305 -20.79905273 175.61487305 -22.05859375 176.93359375 C-22.80294678 177.73595459 -23.5472998 178.53831543 -24.31420898 179.36499023 C-26.5625 181.125 -26.5625 181.125 -29.23461914 181.51196289 C-31.5625 181.125 -31.5625 181.125 -33.3125 179.125 C-34.54387244 176.16970613 -35.01377291 173.56046576 -35.328125 170.38671875 C-35.59391307 167.82186391 -35.9492649 165.29340018 -36.375 162.75 C-36.50519531 161.91726563 -36.63539063 161.08453125 -36.76953125 160.2265625 C-37.36369148 157.99614205 -37.36369148 157.99614205 -39.33227539 157.05615234 C-41.58610655 156.11514391 -43.64220751 155.57893829 -46.0390625 155.125 C-46.874375 154.96 -47.7096875 154.795 -48.5703125 154.625 C-50.32264216 154.29022657 -52.07524984 153.95690535 -53.828125 153.625 C-54.66085938 153.46 -55.49359375 153.295 -56.3515625 153.125 C-57.11162598 152.980625 -57.87168945 152.83625 -58.65478516 152.6875 C-60.5625 152.125 -60.5625 152.125 -62.5625 150.125 C-62.6875 147.5 -62.6875 147.5 -62.5625 145.125 C-61.9025 145.125 -61.2425 145.125 -60.5625 145.125 C-60.2325 143.475 -59.9025 141.825 -59.5625 140.125 C-66.1625 140.125 -72.7625 140.125 -79.5625 140.125 Z M12.32434082 141.09619141 C8.52215095 144.29265386 6.34175606 147.17526109 5.73803711 152.14355469 C5.4045735 157.26284342 5.53749923 162.37511741 5.65625 167.5 C5.67118652 169.39426273 5.68256688 171.28855654 5.69055176 173.18286133 C5.72097521 178.14848418 5.79945191 183.11220987 5.88818359 188.0770874 C5.97028779 193.15139098 6.00661553 198.22600369 6.046875 203.30078125 C6.13245832 213.24315161 6.27307515 223.18362063 6.4375 233.125 C12.7075 233.125 18.9775 233.125 25.4375 233.125 C25.59581036 222.16331237 25.72416288 211.20238709 25.8001852 200.2398138 C25.83667713 195.14910766 25.8861531 190.05922586 25.96557617 184.96899414 C26.04178096 180.05411779 26.08352068 175.14003293 26.1016407 170.22461128 C26.11454896 168.35186874 26.13975706 166.47916828 26.1776104 164.60676384 C26.90203441 153.2315156 26.90203441 153.2315156 22.14477539 143.48266602 C19.00436149 141.04161079 16.14160828 139.34180519 12.32434082 141.09619141 Z M-3.5625 158.125 C-2.5625 160.125 -2.5625 160.125 -2.5625 160.125 Z M49.4375 244.125 C51.26537482 245.24203461 53.09325257 246.35906446 54.92114258 247.47607422 C56.54081957 248.46590439 58.160447 249.45581568 59.7800293 250.44580078 C63.81967937 252.91492947 67.85988013 255.38313617 71.90234375 257.84765625 C79.08887038 262.23094499 86.26474389 266.63006079 93.41625977 271.0703125 C96.08294252 272.72392019 98.75422398 274.36990796 101.42578125 276.015625 C104.59331426 277.96989322 107.73464817 279.95644602 110.85546875 281.984375 C112.17447395 282.82292487 113.49348402 283.66146708 114.8125 284.5 C115.38830811 284.88752441 115.96411621 285.27504883 116.55737305 285.67431641 C119.56628757 287.56060772 121.46231251 288.12526912 125.0390625 288.1640625 C132.15343315 285.98886412 135.12640046 279.75073378 138.6875 273.6875 C139.64951245 272.07721043 140.61307481 270.46784588 141.578125 268.859375 C142.29452148 267.66344727 142.29452148 267.66344727 143.02539062 266.44335938 C145.75296472 261.96530897 148.66176673 257.60537785 151.5625 253.23828125 C152.94975405 250.93486151 154.02894593 248.8823117 155.0546875 246.43041992 C155.51101563 245.33963135 155.96734375 244.24884277 156.4375 243.125 C142.92952567 242.94816727 129.42146617 242.78220239 115.91318798 242.63022423 C109.64118174 242.55931555 103.36926758 242.48462236 97.09741211 242.40136719 C91.04804107 242.32120316 84.99862919 242.25086657 78.94906044 242.18742752 C76.63768597 242.16144564 74.32634894 242.13188482 72.01506615 242.09873581 C68.78505287 242.05301337 65.55514228 242.0198626 62.32495117 241.98974609 C61.36326019 241.9732048 60.40156921 241.95666351 59.41073608 241.93962097 C58.09194206 241.93112373 58.09194206 241.93112373 56.74650574 241.92245483 C55.98233935 241.9132369 55.21817297 241.90401897 54.43085003 241.89452171 C52.11882132 242.00850827 52.11882132 242.00850827 49.4375 244.125 Z " fill="#010101" transform="translate(200.5625,100.875)"/>
<path d="M0 0 C3.64568557 3.45725688 5.10808708 6.37422196 5.24609375 11.48046875 C4.9507847 17.16754951 3.5022762 20.37292173 -0.8125 24.3125 C-5.87457473 27.21850587 -9.16932049 27.82406594 -14.8125 26.3125 C-20.0476147 24.17436894 -23.26891268 21.50141814 -25.8125 16.3125 C-26.67546838 10.48746343 -25.15171105 6.03876794 -21.8125 1.3125 C-15.0706393 -4.28180994 -7.21623409 -5.73098009 0 0 Z M-14.8125 9.3125 C-15.46805119 11.83983235 -15.46805119 11.83983235 -15.8125 14.3125 C-13.13717 16.74793102 -13.13717 16.74793102 -9.6875 17.3125 C-7.58637501 16.40376496 -7.58637501 16.40376496 -6.4375 13.9375 C-6.23125 13.07125 -6.025 12.205 -5.8125 11.3125 C-6.4725 10.3225 -7.1325 9.3325 -7.8125 8.3125 C-10.61811762 8.03193824 -12.27828263 8.04539132 -14.8125 9.3125 Z " fill="#000000" transform="translate(118.8125,387.6875)"/>
<path d="M0 0 C4.38769369 1.79316234 6.53688652 4.2474406 9 8.25 C10.23002514 12.86259427 10.35330062 16.41381455 9 21 C5.84137665 26.01663708 2.70021865 28.38493805 -3 30 C-7.77835642 30.2751933 -11.62461546 29.69130904 -15.4375 26.6875 C-20.07127535 21.82768683 -20.39453524 18.191353 -20.24609375 11.625 C-19.79644616 6.82875899 -17.93720202 4.86691187 -14.5 1.6875 C-9.5807658 -0.68427363 -5.36586178 -0.88782038 0 0 Z M-9.875 10.6875 C-11.30124388 13.61922354 -11.04230389 14.95326554 -10 18 C-8.17796419 20.22966747 -8.17796419 20.22966747 -5.5625 20.3125 C-3.00139665 20.19206876 -3.00139665 20.19206876 -1.1875 18.8125 C0.42525784 16.35092224 0.4334014 14.88934264 0 12 C-1.08333333 10.08333333 -1.08333333 10.08333333 -3 9 C-6.22384781 8.43582663 -7.41475204 8.47327683 -9.875 10.6875 Z " fill="#010101" transform="translate(345,100)"/>
<path d="M0 0 C1.64547318 0.00666183 1.64547318 0.00666183 3.32418823 0.01345825 C4.56532379 0.01360931 5.80645935 0.01376038 7.08520508 0.01391602 C8.4446529 0.02413003 9.8040991 0.03456204 11.1635437 0.04519653 C12.55073849 0.04892619 13.93793591 0.05177339 15.32513428 0.05377197 C18.97813171 0.0614122 22.63097037 0.08106388 26.28390503 0.10317993 C30.01068982 0.12363007 33.73750024 0.1327719 37.46432495 0.14285278 C44.77819945 0.16430953 52.09194309 0.19845001 59.4057312 0.24050903 C60.5307312 2.49050903 60.5307312 2.49050903 61.4057312 5.24050903 C60.5307312 7.55300903 60.5307312 7.55300903 59.4057312 9.24050903 C51.35649137 9.28679738 43.30730691 9.32236029 35.257967 9.34413338 C31.5205529 9.35458201 27.7832297 9.36876074 24.04586792 9.39138794 C20.4408262 9.41307808 16.83587204 9.42506952 13.23077011 9.43026352 C11.85361222 9.43396619 10.47645926 9.44119637 9.09933853 9.45196915 C7.17433575 9.46643238 5.24924533 9.46732551 3.32418823 9.46755981 C2.22720612 9.47200104 1.130224 9.47644226 0 9.48101807 C-2.5942688 9.24050903 -2.5942688 9.24050903 -4.5942688 7.24050903 C-4.8442688 4.74050903 -4.8442688 4.74050903 -4.5942688 2.24050903 C-2.5942688 0.24050903 -2.5942688 0.24050903 0 0 Z " fill="#000000" transform="translate(309.5942687988281,302.7594909667969)"/>
<path d="M0 0 C1.8171476 -0.01913956 1.8171476 -0.01913956 3.67100525 -0.03866577 C4.98557205 -0.04089142 6.30013885 -0.04311707 7.65454102 -0.04541016 C9.01213219 -0.05183485 10.36972195 -0.05856296 11.72731018 -0.06558228 C14.5745871 -0.07756611 17.4217426 -0.08126197 20.26904297 -0.08007812 C23.91899615 -0.07987483 27.56817157 -0.10718139 31.21794033 -0.14162254 C34.02236004 -0.16385172 36.82659137 -0.16791692 39.63109016 -0.16685867 C41.63143289 -0.1703696 43.63171683 -0.19205826 45.63194275 -0.21395874 C46.84652664 -0.20780548 48.06111053 -0.20165222 49.3125 -0.1953125 C50.3834642 -0.19816254 51.45442841 -0.20101257 52.55784607 -0.20394897 C55.22094727 0.29052734 55.22094727 0.29052734 57.09022522 2.32089233 C57.46336349 2.97087189 57.83650177 3.62085144 58.22094727 4.29052734 C56.34594727 8.16552734 56.34594727 8.16552734 55.22094727 9.29052734 C53.3294085 9.3949291 51.43395663 9.42907625 49.53955078 9.43579102 C48.32481583 9.44217087 47.11008087 9.44855072 45.85853577 9.4551239 C44.52230875 9.45665247 43.18608121 9.45776649 41.84985352 9.45849609 C40.48843856 9.46170707 39.12702396 9.46507102 37.76560974 9.46858215 C34.90818481 9.47457951 32.05079016 9.47642144 29.19335938 9.47583008 C25.52670476 9.47572844 21.8602437 9.48937993 18.19363499 9.50660229 C15.38070275 9.51770553 12.56781755 9.5197498 9.75486565 9.51922035 C8.40283478 9.52040303 7.0508028 9.52484087 5.69879341 9.53255272 C3.80980025 9.54231807 1.92075065 9.53821929 0.03173828 9.53344727 C-1.58256325 9.53558479 -1.58256325 9.53558479 -3.22947693 9.5377655 C-5.77905273 9.29052734 -5.77905273 9.29052734 -7.77905273 7.29052734 C-8.02905273 4.79052734 -8.02905273 4.79052734 -7.77905273 2.29052734 C-5.09784733 -0.39067806 -3.7486209 0.02670418 0 0 Z " fill="#000000" transform="translate(312.779052734375,281.70947265625)"/>
<path d="M0 0 C2.375 1.5 2.375 1.5 3.1875 4.625 C3.249375 5.57375 3.31125 6.5225 3.375 7.5 C4.695 7.83 6.015 8.16 7.375 8.5 C7.375 9.16 7.375 9.82 7.375 10.5 C9.85 10.995 9.85 10.995 12.375 11.5 C13 13.8125 13 13.8125 13.375 16.5 C11.375 19.5 11.375 19.5 9.4296875 20.01171875 C8.71039063 20.06972656 7.99109375 20.12773438 7.25 20.1875 C5.97125 20.290625 4.6925 20.39375 3.375 20.5 C3.271875 21.77875 3.16875 23.0575 3.0625 24.375 C2.88671875 26.5546875 2.88671875 26.5546875 2.375 28.5 C-0.625 30.5 -0.625 30.5 -3.125 30.4375 C-5.625 29.5 -5.625 29.5 -7.4375 27.25 C-8.67072782 24.39410399 -8.88817349 22.57035744 -8.625 19.5 C-9.57375 19.54125 -10.5225 19.5825 -11.5 19.625 C-14.625 19.5 -14.625 19.5 -16.625 17.5 C-16.75 13.875 -16.75 13.875 -16.625 10.5 C-13.985 10.17 -11.345 9.84 -8.625 9.5 C-8.44324219 8.94570312 -8.26148437 8.39140625 -8.07421875 7.8203125 C-7.82285156 7.09585938 -7.57148437 6.37140625 -7.3125 5.625 C-7.06886719 4.90570313 -6.82523438 4.18640625 -6.57421875 3.4453125 C-5.01196084 0.24364813 -3.48096091 -0.66304017 0 0 Z " fill="#010101" transform="translate(107.625,81.5)"/>
<path d="M0 0 C1.60725635 3.21451269 1.05748185 6.43612536 1 10 C2.258125 9.938125 3.51625 9.87625 4.8125 9.8125 C7.48703401 9.82198416 8.71452998 9.83563847 11.0625 11.1875 C12.3945522 13.76280093 11.85352401 15.29717396 11 18 C8.95301586 20.04698414 4.69588759 19.70045693 2 20 C1.896875 21.27875 1.79375 22.5575 1.6875 23.875 C1.51171875 26.0546875 1.51171875 26.0546875 1 28 C-2 30 -2 30 -4.625 29.75 C-5.40875 29.5025 -6.1925 29.255 -7 29 C-8.60725635 25.78548731 -8.05748185 22.56387464 -8 19 C-8.93972656 19.05220703 -8.93972656 19.05220703 -9.8984375 19.10546875 C-10.71570313 19.13253906 -11.53296875 19.15960938 -12.375 19.1875 C-13.18710937 19.22230469 -13.99921875 19.25710938 -14.8359375 19.29296875 C-15.55007813 19.19628906 -16.26421875 19.09960938 -17 19 C-19 16 -19 16 -18.75 13.375 C-18.37875 12.199375 -18.37875 12.199375 -18 11 C-14.78548731 9.39274365 -11.56387464 9.94251815 -8 10 C-8.20625 8.906875 -8.4125 7.81375 -8.625 6.6875 C-9 3 -9 3 -7 0 C-3.88407501 -1.03864166 -2.9737344 -1.09036928 0 0 Z " fill="#010101" transform="translate(381,382)"/>
<path d="M0 0 C2.25 1.5 2.25 1.5 3.25 4.4375 C3.25 7.5 3.25 7.5 2.125 9.4375 C0.25 10.5 0.25 10.5 -2.25 10.375 C-4.9485972 9.43049098 -6.1482611 8.86045732 -7.75 6.5 C-7.9375 3.8125 -7.9375 3.8125 -7.75 1.5 C-4.82840301 -0.00253559 -3.27607711 -0.59565038 0 0 Z " fill="#010101" transform="translate(158.75,375.5)"/>
<path d="M0 0 C1.38125018 2.76250036 1.19079306 4.94731099 1 8 C-1 10 -1 10 -3.4375 10.3125 C-6 10 -6 10 -7.8125 8.875 C-9.49106106 6.22464043 -9.20450238 4.06753576 -9 1 C-6.04335481 -0.4783226 -3.25770263 -0.06032783 0 0 Z " fill="#010101" transform="translate(136,125)"/>
<path d="M0 0 C0.33 0.33 0.66 0.66 1 1 C0.71269945 3.33944736 0.38063221 5.6739143 0 8 C-5.3864279 9.31668238 -5.3864279 9.31668238 -7.9375 8 C-9.58971281 4.88995237 -8.69377357 2.34272722 -8 -1 C-4.36442231 -2.21185923 -3.36216382 -1.59260392 0 0 Z " fill="#010101" transform="translate(392,93)"/>
<path d="M0 0 C1.875 0.875 1.875 0.875 3.875 3.875 C3.55373872 6.50934254 3.06144952 8.50210097 1.875 10.875 C-0.435 10.545 -2.745 10.215 -5.125 9.875 C-5.455 7.565 -5.785 5.255 -6.125 2.875 C-2.7254415 -0.16032009 -2.7254415 -0.16032009 0 0 Z " fill="#010101" transform="translate(411.125,357.125)"/>
<path d="M0 0 C2.3125 1.5625 2.3125 1.5625 3.3125 4.5 C3.3125 7.5625 3.3125 7.5625 2.1875 9.4375 C-0.30379254 10.93227553 -1.83199042 11.00180917 -4.6875 10.5625 C-6.83512184 7.34106724 -7.248568 6.3029533 -6.6875 2.5625 C-4.39669987 -0.06767793 -3.47323765 -0.56541078 0 0 Z " fill="#010101" transform="translate(286.6875,120.4375)"/>
<path d="M0 0 C2.5 0.25 2.5 0.25 4.5 2.25 C4.83661952 5.4142235 4.99943411 7.43513382 3.3125 10.1875 C1.5 11.25 1.5 11.25 -1.125 11 C-3.5 10.25 -3.5 10.25 -4.5 9.25 C-4.6875 5.8125 -4.6875 5.8125 -4.5 2.25 C-2.5 0.25 -2.5 0.25 0 0 Z " fill="#010101" transform="translate(209.5,357.75)"/>
<path d="M0 0 C0.125 3.375 0.125 3.375 0 7 C-2 9 -2 9 -4.5 9.25 C-7 9 -7 9 -9 7 C-9.26991906 4.31160615 -9.08737357 1.70858064 -9 -1 C-5.38055101 -2.34053666 -3.42632833 -1.61798838 0 0 Z " fill="#010101" transform="translate(244,93)"/>
<path d="M0 0 C0.125 3.375 0.125 3.375 0 7 C-0.66 7.66 -1.32 8.32 -2 9 C-7.56818182 8.43181818 -7.56818182 8.43181818 -9 7 C-9.23529412 1.47058824 -9.23529412 1.47058824 -8 -1 C-4.37673261 -2.2077558 -3.35853631 -1.54311128 0 0 Z " fill="#010101" transform="translate(418,161)"/>
<path d="M0 0 C3 0.25 3 0.25 5 2.25 C5.25 5.25 5.25 5.25 5 8.25 C3 10.25 3 10.25 0.5 10.5 C-2 10.25 -2 10.25 -4 8.25 C-4.75 5.25 -4.75 5.25 -5 2.25 C-3 0.25 -3 0.25 0 0 Z " fill="#010101" transform="translate(99,333.75)"/>
<path d="M0 0 C2.625 0.375 2.625 0.375 5 1 C7.125 7.75 7.125 7.75 6 10 C3.6875 10.875 3.6875 10.875 1 11 C-1.375 9.375 -1.375 9.375 -3 7 C-2.83849795 3.60845705 -2.41703243 2.41703243 0 0 Z " fill="#010101" transform="translate(255,394)"/>
<path d="M0 0 C0.66 0.33 1.32 0.66 2 1 C1 2 1 2 -1.5625 2.0625 C-2.7690625 2.0315625 -2.7690625 2.0315625 -4 2 C-2.125 0.9375 -2.125 0.9375 0 0 Z " fill="#000000" transform="translate(257,344)"/>
<path d="M0 0 C1 4 1 4 1 4 Z " fill="#000000" transform="translate(403,261)"/>
<path d="M0 0 C1 4 1 4 1 4 Z " fill="#000000" transform="translate(110,230)"/>
<path d="" fill="#000000" transform="translate(0,0)"/>
<path d="" fill="#000000" transform="translate(0,0)"/>
<path d="M0 0 C2 1 2 1 2 1 Z " fill="#000000" transform="translate(390,200)"/>
<path d="" fill="#000000" transform="translate(0,0)"/>
<path d="" fill="#000000" transform="translate(0,0)"/>
<path d="" fill="#000000" transform="translate(0,0)"/>
<path d="" fill="#000000" transform="translate(0,0)"/>
<path d="" fill="#000000" transform="translate(0,0)"/>
<path d="" fill="#000000" transform="translate(0,0)"/>
</svg>
